#!OML:ASF F:\VICON\USERDATA\INSTALL\rory3\rory3.ASF
:FULLY-SPECIFIED
:DEGREES
676
root -1.88643 18.1044 -1.55083 -4.30154 24.4975 2.17402
lowerback 11.1036 -5.53759 -10.7827
upperback 0.418708 -8.59802 2.33913
thorax -3.80242 -4.07324 9.62713
lowerneck 6.01295 -23.8128 -15.3416
upperneck 22.0498 -38.8034 19.7894
head 13.8051 -18.0433 3.60241
rclavicle 3.60732e-014 -5.56597e-015
rhumerus -39.1916 39.2705 -100.654
rradius 93.0511
rwrist 1.5597
rhand -14.2536 8.47168
rfingers 7.12502
rthumb 11.8846 -21.171
lclavicle 3.60732e-014 -5.56597e-015
lhumerus -41.8305 -30.415 102.235
lradius 90.4686
lwrist 2.54936
lhand -17.0402 34.7665
lfingers 7.12502
lthumb 9.19651 64.546
rfemur -20.9874 1.03148 16.5727
rtibia 58.6954
rfoot -6.81367 -0.20181
rtoes 3.86107
lfemur 3.93048 1.13574 -21.2473
ltibia 17.9496
lfoot -5.92127 -4.73859
ltoes -12.6349
677
root -1.94007 18.1269 -1.61722 -4.35036 25.1029 2.23286
lowerback 11.0156 -5.5591 -10.7851
upperback 0.36837 -8.62116 2.31898
thorax -3.80514 -4.08243 9.60037
lowerneck 6.35061 -23.8037 -15.6591
upperneck 21.8675 -38.8937 20.1436
head 13.8616 -18.1162 3.75066
rclavicle -2.33448e-014 -3.57812e-015
rhumerus -39.5881 39.1558 -100.838
rradius 93.1266
rwrist 1.54111
rhand -14.1794 8.36349
rfingers 7.12502
rthumb 11.9561 -21.2751
lclavicle -2.33448e-014 -3.57812e-015
lhumerus -42.1815 -30.4603 102.422
lradius 90.5186
lwrist 2.47562
lhand -17.241 34.5882
lfingers 7.12502
lthumb 9.00282 64.3761
rfemur -20.3765 0.628341 16.4045
rtibia 60.0232
rfoot -6.3046 0.170384
rtoes 3.26919
lfemur 3.58642 1.24149 -21.1449
ltibia 17.9612
lfoot -5.43893 -5.50445
ltoes -12.9887
678
root -1.99685 18.144 -1.68325 -4.48388 25.6004 2.25262
lowerback 10.9924 -5.55898 -10.7269
upperback 0.332782 -8.61634 2.24761
thorax -3.85153 -4.07584 9.49092
lowerneck 6.35842 -23.8481 -15.7352
upperneck 22.0728 -39.0072 20.0727
head 13.9743 -18.1574 3.69813
rclavicle -4.41053e-015 -4.77083e-015
rhumerus -39.9294 39.0372 -101.168
rradius 93.143
rwrist 1.66133
rhand -14.1588 8.35746
rfingers 7.12502
rthumb 11.976 -21.2799
lclavicle -4.41053e-015 -4.77083e-015
lhumerus -42.5987 -30.5046 102.526
lradius 90.5942
lwrist 2.34165
lhand -17.2316 35.0359
lfingers 7.12502
lthumb 9.01189 64.8234
rfemur -19.6301 0.353194 16.2749
rtibia 61.1894
rfoot -5.76521 0.368394
rtoes 2.91535
lfemur 3.34965 1.55058 -20.9787
ltibia 17.911
lfoot -4.95984 -6.34789
ltoes -13.2107
679
root -2.04962 18.1607 -1.74523 -4.47295 26.1967 2.28543
lowerback 10.6804 -5.62395 -10.6619
upperback 0.321277 -8.66398 2.19765
thorax -3.69685 -4.11219 9.36127
lowerneck 6.311 -23.8813 -15.647
upperneck 22.0839 -38.9857 19.91
head 13.9133 -18.147 3.64414
rclavicle -1.13216e-013 9.54166e-015
rhumerus -40.1645 39.0511 -101.396
rradius 93.1628
rwrist 1.82706
rhand -14.2239 8.46679
rfingers 7.12502
rthumb 11.9132 -21.1743
lclavicle -1.13216e-013 9.54166e-015
lhumerus -42.7848 -30.4891 102.53
lradius 90.6021
lwrist 2.42832
lhand -17.0026 35.0341
lfingers 7.12502
lthumb 9.23287 64.812
rfemur -18.9039 0.0559977 16.1123
rtibia 62.1806
rfoot -5.22713 0.453367
rtoes 2.38173
lfemur 3.05118 1.58865 -20.8911
ltibia 17.7517
lfoot -4.45193 -6.9788
ltoes -12.318
680
root -2.10097 18.1745 -1.81285 -4.63028 26.8628 2.15164
lowerback 10.6087 -5.69628 -10.3098
upperback 0.279123 -8.71535 2.1209
thorax -3.75424 -4.13772 9.08202
lowerneck 6.3653 -23.8904 -15.608
upperneck 22.0728 -38.9762 19.8652
head 13.8744 -18.148 3.64044
rclavicle 1.11628e-013 -3.29983e-014
rhumerus -40.5186 38.9312 -101.683
rradius 93.2307
rwrist 1.98346
rhand -14.1997 8.56853
rfingers 7.12502
rthumb 11.9365 -21.0712
lclavicle 1.11628e-013 -3.29983e-014
lhumerus -43.0025 -30.521 102.476
lradius 90.576
lwrist 2.73802
lhand -16.8966 34.8762
lfingers 7.12502
lthumb 9.33515 64.6495
rfemur -17.9711 -0.250238 16.0878
rtibia 62.9737
rfoot -4.7847 0.548075
rtoes 1.77465
lfemur 2.82424 1.32889 -20.7072
ltibia 17.6439
lfoot -3.93931 -7.38838
ltoes -10.4541
681
root -2.15669 18.1941 -1.87938 -4.83685 27.574 1.91654
lowerback 10.6573 -5.76883 -9.86766
upperback 0.153002 -8.77254 2.05542
thorax -3.97906 -4.15285 8.79152
lowerneck 6.6592 -23.8686 -15.6372
upperneck 21.9041 -38.9428 19.9646
head 13.7765 -18.1672 3.72853
rclavicle -1.22274e-013 -7.95139e-016
rhumerus -40.8647 38.7179 -101.963
rradius 93.2659
rwrist 1.93615
rhand -13.8119 8.61079
rfingers 7.12502
rthumb 12.3104 -21.0068
lclavicle -1.22274e-013 -7.95139e-016
lhumerus -43.3908 -30.5032 102.528
lradius 90.5988
lwrist 2.85898
lhand -16.7157 34.7992
lfingers 7.12502
lthumb 9.50969 64.5646
rfemur -17.0027 -0.540011 16.1996
rtibia 63.6128
rfoot -4.36742 0.653608
rtoes -0.198523
lfemur 2.6807 1.14353 -20.3889
ltibia 17.3262
lfoot -3.29009 -7.89169
ltoes -8.88095
682
root -2.2175 18.2102 -1.94364 -4.93484 28.1519 1.8402
lowerback 10.6464 -5.77162 -9.67971
upperback 0.0379947 -8.76061 2.00279
thorax -4.1347 -4.13518 8.64043
lowerneck 6.73328 -23.8887 -15.5441
upperneck 21.8424 -38.9248 19.8995
head 13.6916 -18.1676 3.72275
rclavicle -2.45375e-014 1.59028e-015
rhumerus -41.1389 38.5661 -102.179
rradius 93.3261
rwrist 1.73096
rhand -13.3163 8.67398
rfingers 7.12502
rthumb 12.7883 -20.9143
lclavicle -2.45375e-014 1.59028e-015
lhumerus -43.8024 -30.4865 102.633
lradius 90.6985
lwrist 2.85072
lhand -16.917 35.0006
lfingers 7.12502
lthumb 9.31544 64.7748
rfemur -16.0696 -0.716013 16.1609
rtibia 64.135
rfoot -3.74948 1.03182
rtoes -1.30912
lfemur 2.68901 1.17433 -20.2128
ltibia 16.6455
lfoot -2.58548 -8.44447
ltoes -8.75333
683
root -2.27028 18.2183 -1.99711 -4.74242 29.1117 2.68048
lowerback 10.6977 -5.81964 -10.3236
upperback -0.042341 -8.92565 1.74392
thorax -4.16169 -4.19879 8.74345
lowerneck 6.75601 -23.8915 -15.5778
upperneck 21.9177 -38.9406 19.8642
head 13.7217 -18.1717 3.71222
rclavicle 1.37037e-014 -4.77083e-015
rhumerus -41.4785 38.5485 -102.467
rradius 93.366
rwrist 1.70047
rhand -13.3353 8.61046
rfingers 7.12502
rthumb 12.77 -20.979
lclavicle 1.37037e-014 -4.77083e-015
lhumerus -44.2013 -30.3439 102.742
lradius 90.8763
lwrist 2.74817
lhand -16.7323 34.9292
lfingers 7.12502
lthumb 9.49365 64.6954
rfemur -14.7941 -1.32279 15.0936
rtibia 64.5474
rfoot -3.36076 1.80812
rtoes -3.02657
lfemur 2.99342 0.992109 -20.9858
ltibia 15.7379
lfoot -1.82458 -8.98264
ltoes -8.24143
684
root -2.32213 18.223 -2.04804 -4.39821 30.2226 4.1225
lowerback 10.9191 -5.80322 -11.6567
upperback -0.0789286 -9.11163 1.44729
thorax -4.13326 -4.26299 9.20195
lowerneck 6.79358 -23.9024 -15.7906
upperneck 21.8892 -38.9884 19.9569
head 13.7877 -18.1964 3.74201
rclavicle 1.40392e-015 -4.37326e-015
rhumerus -41.7591 38.6113 -102.489
rradius 93.396
rwrist 1.64943
rhand -13.1783 8.49406
rfingers 7.12502
rthumb 12.9213 -21.0859
lclavicle 1.40392e-015 -4.37326e-015
lhumerus -44.5124 -30.1722 102.995
lradius 91.0591
lwrist 2.66
lhand -16.2241 35.2787
lfingers 7.12502
lthumb 9.984 65.0219
rfemur -13.2403 -2.00772 13.3779
rtibia 64.8059
rfoot -3.00496 2.80767
rtoes -3.08958
lfemur 3.47002 0.74033 -22.336
ltibia 14.8393
lfoot -1.01997 -9.57133
ltoes -7.30217
685
root -2.3814 18.2301 -2.10814 -4.43931 30.7658 4.34445
lowerback 10.9535 -5.73604 -11.8667
upperback -0.146702 -9.05849 1.43776
thorax -4.20849 -4.22302 9.31413
lowerneck 6.82506 -23.9256 -15.9056
upperneck 21.9513 -38.99 19.8121
head 13.7921 -18.2071 3.70678
rclavicle -9.405e-014 -5.96354e-015
rhumerus -42.0677 38.6571 -102.536
rradius 93.4875
rwrist 1.50681
rhand -13.0774 8.39735
rfingers 7.12502
rthumb 13.0186 -21.1764
lclavicle -9.405e-014 -5.96354e-015
lhumerus -44.7044 -29.9641 103.131
lradius 91.1283
lwrist 2.431
lhand -15.6941 35.5177
lfingers 7.12502
lthumb 10.4952 65.2357
rfemur -12.0004 -1.97099 13.0773
rtibia 64.8164
rfoot -2.53624 3.64785
rtoes -2.04
lfemur 3.69611 0.612685 -22.4843
ltibia 14.0221
lfoot -0.185707 -9.85054
ltoes -6.11656
686
root -2.44179 18.2328 -2.17609 -4.76094 31.0672 4.00643
lowerback 10.9523 -5.62406 -11.4378
upperback -0.127864 -8.85307 1.45667
thorax -4.29581 -4.12446 9.08466
lowerneck 6.64063 -24.0137 -15.6926
upperneck 21.9338 -39.0166 19.6295
head 13.7195 -18.1993 3.60802
rclavicle 1.82261e-014 1.03368e-014
rhumerus -42.1346 38.5422 -102.586
rradius 93.5774
rwrist 1.54821
rhand -13.1054 8.41774
rfingers 7.12502
rthumb 12.9916 -21.1577
lclavicle 1.82261e-014 1.03368e-014
lhumerus -44.7555 -29.9692 103.056
lradius 91.1699
lwrist 1.91905
lhand -15.0718 35.601
lfingers 7.12502
lthumb 11.0955 65.2877
rfemur -10.7664 -1.8192 13.3426
rtibia 64.6162
rfoot -2.04899 4.78034
rtoes -2.18457
lfemur 3.69561 0.556808 -22.1202
ltibia 13.6146
lfoot 0.352428 -10.0498
ltoes -6.26347
687
root -2.50346 18.2236 -2.24947 -5.14339 31.5032 3.88391
lowerback 11.1443 -5.5328 -11.2206
upperback -0.049862 -8.72345 1.4216
thorax -4.38566 -4.06093 8.93925
lowerneck 6.41478 -24.0384 -15.5806
upperneck 22.0707 -38.9935 19.4328
head 13.7308 -18.1626 3.51538
rclavicle 7.42461e-014 -3.29983e-014
rhumerus -42.0937 38.514 -102.637
rradius 93.5918
rwrist 1.62987
rhand -13.3812 8.22063
rfingers 7.12502
rthumb 12.7257 -21.3716
lclavicle 7.42461e-014 -3.29983e-014
lhumerus -44.8556 -29.9016 103.009
lradius 91.2864
lwrist 1.53051
lhand -14.8175 36.0188
lfingers 7.12502
lthumb 11.3408 65.6921
rfemur -9.30934 -1.80317 13.3326
rtibia 64.2352
rfoot -1.56135 6.34574
rtoes -3.24462
lfemur 3.53129 0.443862 -21.9859
ltibia 13.8806
lfoot 0.437071 -10.3109
ltoes -6.92334
688
root -2.57003 18.2105 -2.32811 -5.59818 32.0276 3.68047
lowerback 11.4839 -5.47778 -10.9955
upperback -0.0146801 -8.6575 1.44158
thorax -4.58106 -4.01908 8.87687
lowerneck 6.51461 -23.9176 -15.6168
upperneck 21.9982 -38.7659 19.399
head 13.6291 -18.0819 3.58892
rclavicle 7.73272e-014 3.57812e-015
rhumerus -42.0788 38.6657 -102.723
rradius 93.4824
rwrist 1.28274
rhand -13.5773 8.12444
rfingers 7.12502
rthumb 12.5367 -21.4795
lclavicle 7.73272e-014 3.57812e-015
lhumerus -44.9344 -29.7725 103.049
lradius 91.3765
lwrist 1.73435
lhand -15.2836 36.2501
lfingers 7.12502
lthumb 10.8912 65.9476
rfemur -7.78546 -1.76974 13.4656
rtibia 63.6543
rfoot -1.1463 7.78465
rtoes -4.2127
lfemur 3.19296 0.24282 -21.7666
ltibia 14.5098
lfoot 0.46391 -10.5572
ltoes -6.48575
689
root -2.64872 18.2126 -2.38454 -5.7696 31.9464 3.08435
lowerback 11.0446 -5.28451 -10.6086
upperback -0.0443757 -8.29321 1.62965
thorax -4.47372 -3.85491 8.77873
lowerneck 6.71827 -23.784 -15.8715
upperneck 21.9253 -38.6423 19.6483
head 13.6639 -18.0464 3.74298
rclavicle 3.60794e-014 3.65764e-014
rhumerus -41.9963 38.599 -102.687
rradius 93.2899
rwrist 1.25019
rhand -12.8815 8.78111
rfingers 7.12502
rthumb 13.2074 -20.7805
lclavicle 3.60794e-014 3.65764e-014
lhumerus -45.0956 -29.7649 103.14
lradius 91.5716
lwrist 1.95137
lhand -15.8465 36.5378
lfingers 7.12502
lthumb 10.3482 66.2632
rfemur -6.78698 -1.04719 14.3118
rtibia 62.8931
rfoot -0.524941 8.52115
rtoes -2.71197
lfemur 2.3079 0.792535 -20.9643
ltibia 15.3362
lfoot 0.344219 -11.0093
ltoes -5.24103
690
root -2.76383 18.2154 -2.41974 -6.15259 31.4887 2.05199
lowerback 10.4895 -4.94439 -10.3839
upperback -0.00197168 -7.73213 2.00909
thorax -4.21628 -3.6023 8.94114
lowerneck 6.79024 -23.7128 -16.0112
upperneck 21.9349 -38.6261 19.8975
head 13.7573 -18.0322 3.84138
rclavicle 1.86361e-016 -3.97569e-015
rhumerus -41.8416 38.4939 -102.626
rradius 93.1293
rwrist 1.4837
rhand -11.7253 9.52038
rfingers 7.12502
rthumb 14.3217 -19.9657
lclavicle 1.86361e-016 -3.97569e-015
lhumerus -45.1866 -29.7952 103.086
lradius 91.732
lwrist 2.20207
lhand -16.0434 37.1138
lfingers 7.12502
lthumb 10.1583 66.8486
rfemur -5.83991 0.296664 16.0005
rtibia 61.9888
rfoot 0.287209 8.63221
rtoes -0.317179
lfemur 1.41661 1.87617 -19.4967
ltibia 16.225
lfoot 0.151121 -11.7324
ltoes -4.39651
